<svg xmlns="http://www.w3.org/2000/svg" version="1.1" viewBox="-5.0 -10.0 110.0 135.0">
 <path d="m67.527 32.094c2.3125 0 4.2461-1.625 4.7344-3.793 4.5391-0.007812 8.2305-3.7031 8.2305-8.2422 0-5.5469-4.5117-10.055-10.055-10.055l-41.281-0.003906c-0.046875 0-0.089844 0.019531-0.13672 0.027344-5.293 0.28516-9.5117 4.668-9.5117 10.027 0 4.5391 3.6875 8.2305 8.2227 8.2422 0.48828 2.168 2.4219 3.793 4.7383 3.793h0.050781v43.773h-0.57812c-2.2891 0-4.1484 1.8594-4.1484 4.1484v2.0977c-1.4648 0.45312-2.5391 1.8086-2.5391 3.4219v3.4688c0 0.55078 0.44922 1 1 1h47.492c0.55078 0 1-0.44922 1-1v-3.4688c0-1.6133-1.0742-2.9648-2.5391-3.4219v-2.0977c0-2.2891-1.8594-4.1484-4.1484-4.1484h-0.57812v-43.773h0.046875zm-39.773-5.793c-3.4453 0-6.2461-2.8008-6.2461-6.2422 0-4.4414 3.6133-8.0547 8.0547-8.0547h40.871c4.4414 0 8.0547 3.6133 8.0547 8.0547 0 3.4414-2.8008 6.2422-6.2461 6.2422-2.6445 0-4.7969-2.1523-4.7969-4.7969 0-2.0039 1.6328-3.6367 3.6367-3.6367 1.4922 0 2.7109 1.2148 2.7109 2.7109 0 1.0859-0.88281 1.9688-1.9688 1.9688-0.75781 0-1.375-0.61719-1.375-1.375 0-0.55078-0.44922-1-1-1s-1 0.44922-1 1c0 1.8594 1.5156 3.375 3.375 3.375 2.1875 0 3.9688-1.7812 3.9688-3.9688 0-2.5977-2.1133-4.7109-4.7109-4.7109-2.5781 0-4.7539 1.7422-5.4219 4.1094h-31.332c-0.66797-2.3672-2.8438-4.1094-5.4219-4.1094-2.5977 0-4.7109 2.1133-4.7109 4.7109 0 2.1875 1.7812 3.9688 3.9688 3.9688 1.8594 0 3.375-1.5156 3.375-3.375 0-0.55078-0.44922-1-1-1-0.55078 0-1 0.44922-1 1 0 0.75781-0.61719 1.375-1.375 1.375-1.0859 0-1.9688-0.88281-1.9688-1.9688 0-1.4922 1.2148-2.7109 2.7109-2.7109 2.0039 0 3.6367 1.6328 3.6367 3.6367 0 2.6445-2.1523 4.7969-4.7969 4.7969zm43.395 57.633c0.87891 0 1.5977 0.71484 1.5977 1.5977v2.4688h-45.492v-2.4688c0-0.87891 0.71484-1.5977 1.5977-1.5977zm-3.0898-6.0664c1.1836 0 2.1484 0.96484 2.1484 2.1484v1.918h-40.41v-1.918c0-1.1836 0.96484-2.1484 2.1484-2.1484h36.117zm-8.1719-41.453c-0.55078 0-1 0.44922-1 1v38.449h-4.5898v-38.449c0-0.55078-0.44922-1-1-1s-1 0.44922-1 1v38.449h-4.5938v-38.449c0-0.55078-0.44922-1-1-1s-1 0.44922-1 1v38.449h-4.5898v-38.449c0-0.55078-0.44922-1-1-1s-1 0.44922-1 1v38.449h-4.5898v-43.77h30.957v43.77h-4.5898v-38.449c0-0.55078-0.44922-1-1-1zm-27.418-6.3203c-1.3086 0-2.4023-0.88672-2.7422-2.0859 2.6406-0.80469 4.6016-3.1758 4.7969-6.0273h30.949c0.19922 2.8516 2.1562 5.2227 4.793 6.0273-0.33984 1.1992-1.4336 2.0859-2.7422 2.0859z"/>
<text x="0.0" y="117.5" font-size="5.0" font-weight="bold" font-family="Arbeit Regular, Helvetica, Arial-Unicode, Arial, Sans-serif" fill="#000000">Created by Uswa KDT</text><text x="0.0" y="122.5" font-size="5.0" font-weight="bold" font-family="Arbeit Regular, Helvetica, Arial-Unicode, Arial, Sans-serif" fill="#000000">from Noun Project</text></svg>
